<svg width="220" height="63" viewBox="0 0 220 63" fill="none" xmlns="http://www.w3.org/2000/svg">
<g clip-path="url(#clip0_4448_29307)">
<path d="M5.48022 61.0513V53.2563H7.55676C8.35968 53.2563 8.99649 53.5625 9.52254 54.175C10.0209 54.7875 10.2701 55.5948 10.2701 56.5692V57.7384C10.2701 58.7406 9.99322 59.4923 9.52254 60.1326C9.02417 60.745 8.38737 61.0513 7.55676 61.0513H5.48022ZM6.53233 54.3699V60.0769H7.55676C8.05513 60.0769 8.47043 59.8542 8.77499 59.4366C9.07955 59.019 9.21798 58.4901 9.21798 57.7941V56.6248C9.21798 55.9845 9.07955 55.4556 8.77499 54.9823C8.47043 54.5647 8.05513 54.342 7.55676 54.342L6.53233 54.3699Z" fill="#292929"/>
<path d="M12.5681 61.0513H11.4883V53.2563H12.5404C12.5681 53.3398 12.5681 61.0513 12.5681 61.0513Z" fill="#292929"/>
<path d="M17.5241 57.5992H15.0599V60.0769H17.9671V61.1069H14.0078V53.312H17.9394V54.342H15.0599V56.5413H17.5241V57.5992ZM17.6348 52.783L16.7211 52.8109L15.9182 51.9757L15.1707 52.8109H14.257V52.783L15.5029 51.5024H16.3335L17.6348 52.783ZM17.1088 50.194C17.1088 50.4724 17.0257 50.6394 16.915 50.8343C16.8042 51.0292 16.6104 51.1405 16.4166 51.1405C16.2782 51.1405 16.112 51.057 15.9182 50.9456C15.7244 50.8343 15.586 50.7508 15.4752 50.7508C15.3922 50.7508 15.3368 50.7786 15.2537 50.89C15.1707 51.0013 15.1707 51.0848 15.1707 51.1962L14.7554 51.057C14.7554 50.8343 14.8384 50.6116 14.9492 50.4167C15.0599 50.2218 15.2537 50.1105 15.4475 50.1105C15.5583 50.1105 15.7244 50.194 15.9459 50.3053C16.1397 50.4167 16.2782 50.5002 16.3889 50.5002C16.472 50.5002 16.5273 50.4724 16.6104 50.361C16.6935 50.2497 16.7211 50.1383 16.7211 50.027L17.1088 50.194Z" fill="#292929"/>
<path d="M23.8368 61.0513H22.7846L19.9882 55.4556H19.9606V61.0513H18.9084V53.2563H20.0159L22.7846 58.852H22.8123V53.2563H23.8644L23.8368 61.0513Z" fill="#292929"/>
<path d="M27.4085 61.0513V57.5435H26.7163V56.6248H27.4085V53.2841H29.485C30.2879 53.2841 30.9247 53.5904 31.4508 54.2028C31.9492 54.8153 32.1984 55.6226 32.1984 56.597V57.7662C32.1984 58.7684 31.9215 59.5201 31.4508 60.1604C30.9524 60.7729 30.2879 61.0791 29.485 61.0791L27.4085 61.0513ZM29.5681 57.5992H28.4329V60.0769H29.4573C29.9557 60.0769 30.371 59.8542 30.6756 59.4366C30.9801 59.019 31.1186 58.4901 31.1186 57.7941V56.6248C31.1186 55.9845 30.9801 55.4556 30.6756 54.9823C30.371 54.5647 29.9557 54.342 29.4573 54.342H28.4329V56.6527H29.5681V57.5992Z" fill="#292929"/>
<path d="M36.5729 59.2696H34.3302L33.8319 61.1069H32.7244L34.9116 53.312H35.9361L38.1234 61.1069H37.0159L36.5729 59.2696ZM35.9361 52.5603H35.0778L33.9426 51.1405V51.1127H35.1608L35.9361 52.5603ZM34.6071 58.2117H36.2683L35.4654 55.1215H35.4377L34.6071 58.2117Z" fill="#292929"/>
<path d="M43.8823 61.0513H42.8302L40.0061 55.4556H39.9784V61.0513H38.9263V53.2563H39.9784L42.7748 58.852H42.8025V53.2563H43.8546L43.8823 61.0513Z" fill="#292929"/>
<path d="M52.0221 58.5457C52.0498 59.3531 51.8283 59.9934 51.413 60.4945C50.9977 60.9956 50.4163 61.2183 49.6687 61.2183C48.9489 61.2183 48.3398 60.9121 47.8968 60.2996C47.4538 59.6871 47.2046 58.8798 47.2046 57.9333V56.4578C47.2046 55.5113 47.4261 54.7318 47.8968 54.0915C48.3398 53.4512 48.9489 53.1728 49.6687 53.1728C50.4163 53.1728 50.9977 53.3955 51.413 53.8688C51.8283 54.3142 52.0498 54.9823 52.0221 55.7618V55.7897H50.9977C50.9977 55.2607 50.887 54.871 50.6655 54.6204C50.444 54.342 50.084 54.2028 49.6411 54.2028C49.2257 54.2028 48.8935 54.4255 48.6166 54.8431C48.3398 55.2607 48.229 55.7897 48.229 56.43V57.9054C48.229 58.5457 48.3398 59.0747 48.6166 59.4923C48.8935 59.9098 49.2257 60.1047 49.6687 60.1047C50.084 60.1047 50.4163 59.9655 50.6655 59.6871C50.887 59.4087 50.9977 58.9912 50.9977 58.4622L52.0221 58.5457Z" fill="#292929"/>
<path d="M57.8918 53.3398V58.4901C57.8918 59.3531 57.6703 60.049 57.1997 60.5501C56.7567 61.0513 56.1475 61.274 55.4277 61.274C54.7078 61.274 54.1541 61.0513 53.6834 60.5501C53.2404 60.049 52.9912 59.3809 52.9912 58.4901V53.3398H54.0433V58.4901C54.0433 59.0747 54.1541 59.4923 54.4309 59.7707C54.7078 60.0769 55.0124 60.2161 55.4277 60.2161C55.843 60.2161 56.1752 60.0769 56.4521 59.7707C56.729 59.4644 56.8397 59.0468 56.8397 58.4901V53.3398H57.8918ZM55.0401 52.6438L55.0124 51.8365C55.2339 51.8365 55.4 51.8087 55.4554 51.7251C55.5384 51.6973 55.5938 51.5859 55.5938 51.4467C55.5938 51.3076 55.5107 51.224 55.4 51.1405C55.2892 51.057 55.1231 51.057 54.9016 51.057L54.9293 50.4167C55.4277 50.4167 55.7599 50.5002 56.0368 50.6951C56.3137 50.89 56.4244 51.1127 56.4244 51.4467C56.4244 51.6695 56.3414 51.8643 56.2306 52.0314C56.1199 52.1427 55.9537 52.2262 55.7876 52.2541V52.6438H55.0401Z" fill="#292929"/>
<path d="M62.3219 59.2696H60.0792L59.5809 61.1069H58.4734L60.6607 53.312H61.6574L63.8447 61.1069H62.7372L62.3219 59.2696ZM60.3561 58.2117H62.0173L61.2144 55.1215H61.1867L60.3561 58.2117Z" fill="#292929"/>
<path d="M71.8185 61.0513H70.7664V57.7384H67.9147V61.0513H66.8625V53.2563H67.9147V56.6805H70.7664V53.2563H71.8185V61.0513Z" fill="#292929"/>
<path d="M78.1035 57.9333C78.1035 58.8798 77.882 59.6871 77.3836 60.2996C76.8853 60.9121 76.2762 61.2461 75.5009 61.2461C74.7534 61.2461 74.1443 60.9399 73.6459 60.2996C73.1475 59.6593 72.926 58.8798 72.926 57.9333V56.5135C72.926 55.5669 73.1475 54.7596 73.6459 54.1471C74.1443 53.5347 74.7534 53.2006 75.5009 53.2006C76.2485 53.2006 76.913 53.5068 77.3836 54.1471C77.8543 54.7874 78.1035 55.5669 78.1035 56.5135V57.9333ZM77.0791 56.4856C77.0791 55.8453 76.9407 55.3164 76.6638 54.8988C76.3869 54.4812 76.027 54.2863 75.5286 54.2863C75.0856 54.2863 74.698 54.4812 74.4211 54.8988C74.1443 55.3164 74.0058 55.8453 74.0058 56.4856V57.9054C74.0058 58.5457 74.1443 59.0747 74.4211 59.4923C74.698 59.9099 75.0579 60.1047 75.5286 60.1047C76.027 60.1047 76.3869 59.9099 76.6638 59.4923C76.9407 59.0747 77.0791 58.5457 77.0791 57.9054V56.4856ZM76.996 52.2819V52.3933H76.1654L75.5563 51.6416L74.9472 52.3933H74.1166V52.2541L75.2517 50.9735H75.8609L76.996 52.2819ZM76.11 63H74.9472V61.8308H76.11V63Z" fill="#292929"/>
<path d="M80.3739 61.0513H79.3218V53.2563H80.3739V61.0513Z" fill="#292929"/>
<path d="M85.0807 60.0769H88.0432V61.1069H84.0286V53.312H85.0807V60.0769Z" fill="#292929"/>
<path d="M90.0643 61.0513H89.0122V53.2563H90.0643V61.0513Z" fill="#292929"/>
<path d="M95.0204 57.5992H92.5563V60.0769H95.4634V61.1069H91.5042V53.312H95.4357V54.342H92.5563V56.5413H95.0204V57.5992ZM94.965 52.4211V52.5325H94.1344L93.5253 51.7808L92.9162 52.5325H92.0856V52.3933L93.2208 51.1127H93.8299L94.965 52.4211Z" fill="#292929"/>
<path d="M101.361 61.0513H100.309L97.5124 55.4556H97.4847V61.0513H96.4326V53.2563H97.4847L100.281 58.852H100.309V53.2563H101.361V61.0513Z" fill="#292929"/>
<path d="M109.833 61.0513H108.781V57.7384H105.929V61.0513H104.877V53.2563H105.929V56.6805H108.781V53.2563H109.833V61.0513Z" fill="#292929"/>
<path d="M112.297 61.0513H111.245V53.2563H112.297V61.0513Z" fill="#292929"/>
<path d="M117.253 57.5992H114.789V60.0769H117.696V61.1069H113.709V53.312H117.641V54.342H114.761V56.5413H117.225L117.253 57.5992ZM117.17 52.4211V52.5325H116.339L115.73 51.7808L115.121 52.5325H114.263V52.3933L115.398 51.1127H116.007L117.17 52.4211ZM116.312 62.9165H115.149V61.7472H116.312V62.9165Z" fill="#292929"/>
<path d="M119.717 58.156V61.1348H118.665V53.3398H121.102C121.794 53.3398 122.347 53.5625 122.735 54.0358C123.123 54.4812 123.344 55.0658 123.344 55.7897C123.344 56.5135 123.15 57.1259 122.735 57.5435C122.347 57.9889 121.794 58.1838 121.102 58.1838L119.717 58.156ZM119.717 57.0981H121.074C121.461 57.0981 121.766 56.9867 121.932 56.7083C122.126 56.43 122.237 56.1237 122.237 55.7061C122.237 55.3164 122.126 54.9823 121.932 54.7039C121.738 54.4255 121.434 54.3142 121.074 54.3142H119.717V57.0981Z" fill="#292929"/>
<path d="M130.958 54.3699H128.993V61.1069H127.941V54.3699H126.002V53.3398H130.931V54.3699H130.958Z" fill="#292929"/>
<path d="M136.69 61.0513H135.638V57.7384H132.841V61.0513H131.789V53.2563H132.841V56.6805H135.693V53.2563H136.745V61.0513H136.69Z" fill="#292929"/>
<path d="M141.369 59.2696H139.126L138.628 61.1069H137.52L139.707 53.312H140.704L142.891 61.1069H141.784L141.369 59.2696ZM139.458 58.2117H141.119L140.316 55.1215H140.289L139.458 58.2117Z" fill="#292929"/>
<path d="M148.678 61.0513H147.626L144.829 55.4556H144.802V61.0513H143.75V53.2563H144.802L147.598 58.852H147.626V53.2563H148.678V61.0513Z" fill="#292929"/>
<path d="M154.963 61.0513H153.911V57.7384H151.059V61.0513H150.007V53.2563H151.059V56.6805H153.911V53.2563H154.963V61.0513Z" fill="#292929"/>
<path d="M163.463 61.0513H162.383L159.587 55.4556H159.559V61.0513H158.507V53.2563H159.559L162.355 58.852H162.383V53.2563H163.435V61.0513H163.463Z" fill="#292929"/>
<path d="M165.927 61.0513H164.875V53.2563H165.927V61.0513Z" fill="#292929"/>
<path d="M170.883 57.5992H168.419V60.0769H171.326V61.1069H167.367V53.312H171.298V54.342H168.419V56.5413H170.883V57.5992ZM170.772 52.4211V52.5325H169.942L169.332 51.7808L168.723 52.5325H167.893V52.3933L169.028 51.1127H169.637L170.772 52.4211Z" fill="#292929"/>
<path d="M177.196 61.0513H176.144L173.347 55.4556H173.32V61.0513H172.268V53.2563H173.32L176.116 58.852H176.144V53.2563H177.196V61.0513Z" fill="#292929"/>
<path d="M182.761 58.9912L182.871 59.5758H182.899L183.01 58.9912L184.533 53.312H185.668L183.397 61.1069H182.401L180.13 53.312H181.266L182.761 58.9912Z" fill="#292929"/>
<path d="M187.551 61.0513H186.471V53.2563H187.523V61.0513H187.551Z" fill="#292929"/>
<path d="M192.451 57.5992H189.987V60.0769H192.894V61.1069H188.907V53.312H192.839V54.342H189.959V56.5413H192.423V57.5992H192.451ZM192.396 52.4211V52.5325H191.565L190.956 51.7808L190.347 52.5325H189.516V52.3933L190.652 51.1127H191.261L192.396 52.4211ZM191.51 62.9165H190.347V61.7472H191.51V62.9165Z" fill="#292929"/>
<path d="M198.293 54.3699H196.328V61.1069H195.276V54.3699H193.337V53.3398H198.266L198.293 54.3699Z" fill="#292929"/>
<path d="M206.239 61.0513H205.187L202.391 55.4556H202.363V61.0513H201.311V53.2563H202.363L205.16 58.852H205.187V53.2563H206.239V61.0513Z" fill="#292929"/>
<path d="M210.946 59.2696H208.704L208.205 61.1069H207.098L209.285 53.312H210.282L212.469 61.1069H211.361L210.946 59.2696ZM209.008 58.2117H210.669L209.866 55.1215H209.839L209.008 58.2117Z" fill="#292929"/>
<path d="M216.511 59.3252L218.366 53.3398H219.723V61.1348H218.671V55.5669H218.643L216.899 61.1626H216.179L214.407 55.4556H214.379V61.1626H213.327V53.3676H214.739L216.511 59.3252Z" fill="#292929"/>
<path d="M194.722 4.20371C204.938 4.20371 208.51 7.71144 209.894 8.85285V4.20371H220V46.4357H210.088V28.3124C210.088 26.5864 208.51 21.8537 204.8 21.7981V46.4357H194.722V4.20371ZM182.456 36.9147H192.728V46.5192H172.96V4.20371H192.728V13.8082H182.456V20.9629H191.233V29.0362H182.456V36.9147ZM161.968 4.20371H171.52V46.4357H161.968V4.20371ZM134.862 4.20371C145.079 4.20371 148.65 7.71144 150.035 8.85285V4.20371H160.168V46.4357H150.256V28.3124C150.256 26.5864 148.678 21.8537 144.968 21.7981V46.4357H134.89V4.20371H134.862ZM118.25 4.20371H127.774V46.4357H118.222V27.6164H113.211V46.4357H103.659V4.20371H113.211V19.738H118.222L118.25 4.20371ZM76.1655 4.20371C86.3821 4.20371 89.9537 7.71144 91.3381 8.85285V4.20371H101.472V46.4357H91.5596V28.3124C91.5596 26.5864 89.9814 21.8537 86.2713 21.7981V46.4357H76.1932V4.20371H76.1655ZM49.1429 46.5192H59.3871V41.3411H64.3708V46.4914H74.6151V4.20371C55.151 4.23155 49.1706 18.4852 49.1429 28.1454V46.5192ZM64.3985 19.4317V32.5718H59.4425V29.1476C59.3871 25.9739 61.6298 19.4317 64.3985 19.4317ZM38.1234 4.20371H47.6755V46.4357H38.1234V27.6164H33.1675V46.4357H23.6154V4.20371H33.1675V19.738H38.1788V4.20371H38.1234ZM0.74585 4.20371H22.2587V12.4163H16.3891V46.4079H6.61552V12.4441H0.74585V4.20371ZM180.574 2.39417L182.733 0.222713C183.01 -0.055678 183.564 -0.055678 183.841 0.222713L186 2.39417C186.277 2.67256 186.526 2.92311 186 3.50773C185.474 4.03668 185.197 3.78612 184.893 3.50773L183.259 1.86522L181.626 3.50773C181.349 3.78612 181.1 4.03668 180.518 3.50773C179.992 2.95095 180.297 2.67256 180.574 2.39417Z" fill="#0098D1"/>
</g>
<defs>
<clipPath id="clip0_4448_29307">
<rect width="219.254" height="63" fill="white" transform="translate(0.74585)"/>
</clipPath>
</defs>
</svg>
